<svg xmlns="http://www.w3.org/2000/svg" viewBox="0 0 1054.98 597.58"><defs><style>.cls-1{fill:#3f3f3f;}.cls-2{fill:#81ef87;}.cls-3,.cls-5{fill:none;stroke-linecap:round;stroke-miterlimit:10;stroke-width:6px;}.cls-3{stroke:#abadb0;}.cls-4{font-size:128.95px;font-family:Fredoka-Regular, Fredoka;}.cls-4,.cls-6{fill:#f4f4f4;}.cls-5{stroke:#fff;}.cls-6{font-size:179px;font-family:Poppins-ExtraBoldItalic, Poppins;font-weight:800;}.cls-6,.cls-7{font-style:italic;}.cls-7{font-size:165px;fill:#e5e5e5;font-family:Poppins-BoldItalic, Poppins;font-weight:700;}</style></defs><g id="Layer_2" data-name="Layer 2"><g id="Layer_1-2" data-name="Layer 1"><path class="cls-1" d="M.56,311.92c5.12-76.1,44.12-130.8,65.37-156.26C87.64,131.6,136.35,85.07,210.6,71.25a235.07,235.07,0,0,1,51-3.8A115.21,115.21,0,0,0,268,78.59c2.21,3.41,4,5.82,4.67,6.69,5.32,7.13,10.85,15.6,16,23.54a222.35,222.35,0,0,1,18.42,33.69,195.89,195.89,0,0,1,10.61,31.74,167.34,167.34,0,0,0-119.58,3.9,172,172,0,0,0-65.27,51.38,168.1,168.1,0,0,0-23.5,41.81,218.75,218.75,0,0,0-9.8,64.73,214.43,214.43,0,0,0,1.88,28.16,205.93,205.93,0,0,0,36.71,71.24c6.31,7.91,15.91,19.77,31.27,31,29.49,21.55,61.18,26.86,80.78,28.13a165.23,165.23,0,0,1-35.28,37.59,198.87,198.87,0,0,1-18.85,12.7,252.1,252.1,0,0,1-36.16,18.2,8.77,8.77,0,0,0-5.42,2.25,8.64,8.64,0,0,0-2.5,4.26,259.88,259.88,0,0,1-88.2-65.35A254.2,254.2,0,0,1,3.11,368,251.13,251.13,0,0,1,.56,311.92Z"/><path class="cls-2" d="M261.71,67.23a28.14,28.14,0,0,0,1.77,4.5,28.48,28.48,0,0,0,4.5,6.54s4.47,6.44,13.36,19.29c7.11,10.27,18.78,27.11,27.69,49.09A189.42,189.42,0,0,1,317.79,174,182.53,182.53,0,0,1,366,202.7a163.89,163.89,0,0,1,34.12,37.44c22.88,35,25.1,69.84,25.74,82.2,2,38.27-9.34,66.43-11.68,72.07-14.42,34.7-37.25,54.4-47.08,62.68-11.59,9.77-36.51,30.24-74.73,36.62a142.5,142.5,0,0,1-42.08.67c-7.33,9.38-24.06,29.91-40.65,41.49C206.2,538.27,202,541,202,541a205.37,205.37,0,0,1-27.43,15.51c-9.19,4.16-13.78,6.25-14.53,6.35a9.74,9.74,0,0,0-5.8,2.53,8.55,8.55,0,0,0-2.12,4,264.68,264.68,0,0,0,96.72,24.17c25.06,1.37,83.91.94,144.94-34.35a259.35,259.35,0,0,0,78-69.52,271.61,271.61,0,0,0,47.18-213.19,262.88,262.88,0,0,0-54.18-114,266.7,266.7,0,0,0-52.5-48.27C396.7,103.39,349.13,71,282.52,67.39,273.9,66.92,266.7,67,261.71,67.23Z"/><path class="cls-1" d="M291.92,65.06a32.91,32.91,0,0,0,2,6.54c2.25,5.36,5.2,8.36,9,12.88,5.16,6.14,5.61,7.63,9.17,12,5.61,6.91,17.5,21.57,37.3,29.19,6.09,2.34,15.4,5.93,27.3,4.68,9.45-1,17.92-4.77,27.86-9.19,4.6-2.05,8.32-4,10.9-5.33-6.74-4.8-12.28-9-16.5-12.26-2.76-2.14-5.48-4.26-9.09-7.24-5-4.18-5.79-5.06-8.13-6.87a61.43,61.43,0,0,0-14-7.86C351,74.33,328,70.27,319.1,68.79,312.31,67.66,303,66.27,291.92,65.06Z"/><path class="cls-2" d="M418.37,111.71a78.93,78.93,0,0,1-4.09-45.81,71.48,71.48,0,0,1,16.91-33.8C439.91,22.58,449.44,17.77,455,15a115.66,115.66,0,0,1,23.44-8.22c3.75-.93,10-2.32,16.85-3.48,6.54-1.11,7.21-.93,11.71-1.95A42,42,0,0,1,514.64.06a32.36,32.36,0,0,1,7.12.36c-1.78,27.23-5.33,46.08-8.28,58.31-.58,2.37-1,3.8-1.43,5.37-2.21,7.27-8.28,26.37-26.62,40.35A74.14,74.14,0,0,1,454.31,118a75,75,0,0,1-30.31-.72Z"/><path class="cls-1" d="M418.31,118.28c-.44-.81-.31-1.57-.17-2.84.08-.77.18-1.91.23-3.33l0-.47a3.74,3.74,0,0,0,1.38-.12,3.68,3.68,0,0,0,1.83-1.21c.93-1.75,2.2-4.08,3.78-6.8,1.07-1.85,2.06-3.5,2.7-4.53s3.21-5.16,7.82-11.19c7-9.19,16-19.14,17.75-21.1A7.5,7.5,0,0,1,455.85,63c1.27-1.12,1.95-.8,3.08-2.11.39-.46.92-1.24,2-2.79a8.51,8.51,0,0,1,.57-.8c.92-1.07,1.5-1,2.16-1.84.49-.67.34-1,.83-1.3s.95-.14,1.35-.51.14-.82.4-2a3.56,3.56,0,0,1,1-2c.49-.41,1.34-.76,1.71-.45s.05,1.37,0,1.61a5.82,5.82,0,0,1-1.75,2.25c-1.46,1.45-.86,1.65-2.92,4.18a15.3,15.3,0,0,0-1.84,2.35,16.05,16.05,0,0,1-1,1.69c-.32.46-.57.76-.69.91A13.06,13.06,0,0,0,459,65.44c-.89,2-2.68,3.35-3.76,4.35-2.87,2.66-4.38,6.43-6.95,11.2-2.28,4.24-5.87,9.22-13.07,19.17a66.61,66.61,0,0,1-7.52,8.83c-.56.55-1,1-1.36,1.3a8.47,8.47,0,0,0-2.2,4.26,8.32,8.32,0,0,0-.06,2.61,3.83,3.83,0,0,0-2.2.9,3.73,3.73,0,0,0-1.11,1.71,3,3,0,0,1-1.51-.51A2.88,2.88,0,0,1,418.31,118.28Z"/><circle class="cls-2" cx="251.4" cy="321.36" r="69.92"/><path class="cls-3" d="M241.77,388.12c.81,2.38,8.68,24.2,32.32,31.85,2,.66,24.76,7.58,45.13-7.07a50.85,50.85,0,0,0,20.71-47.57c-2.8-21.19-18.44-32.82-21.25-34.83"/><text class="cls-4" transform="translate(226.94 347.92) scale(0.83 1)">s</text><line class="cls-5" x1="251.4" y1="279.5" x2="251.4" y2="292.56"/><line class="cls-5" x1="251.4" y1="343.74" x2="251.4" y2="356.8"/><text class="cls-6" transform="translate(413.99 330.5)">Money</text><text class="cls-7" transform="translate(470.27 497.59)">nesty</text></g></g></svg>