<?xml version="1.0" encoding="utf-8"?>
<!-- Generator: Adobe Illustrator 28.2.0, SVG Export Plug-In . SVG Version: 6.00 Build 0)  -->
<svg version="1.1" id="Layer_2_00000170966930560828230310000000539665530164302992_"
	 xmlns="http://www.w3.org/2000/svg" xmlns:xlink="http://www.w3.org/1999/xlink" x="0px" y="0px" viewBox="0 0 1015.5 593.9"
	 style="enable-background:new 0 0 1015.5 593.9;" xml:space="preserve">
<style type="text/css">
	.st0{fill:#1A1A1A;}
	.st1{fill:#42CC49;}
	.st2{fill:#CECECE;}
	.st3{font-family:'Poppins-BoldItalic';}
	.st4{font-size:168.36px;}
	.st5{font-size:141px;}
	.st6{fill:none;stroke:#000000;stroke-width:6;stroke-linecap:round;stroke-miterlimit:10;}
	.st7{fill:#CCCCCC;}
	.st8{font-family:'Poppins-SemiBold';}
	.st9{font-size:128.95px;}
	.st10{fill:none;stroke:#FFFFFF;stroke-width:5;stroke-linecap:round;stroke-miterlimit:10;}
	.st11{fill:none;stroke:#191919;stroke-width:4;stroke-linecap:round;stroke-miterlimit:10;}
	.st12{fill:none;stroke:#DDDDDD;stroke-width:3;stroke-linecap:round;stroke-miterlimit:10;}
</style>
<g id="Layer_1-2">
	<path class="st0" d="M0.6,311.9c5.1-76.1,44.1-130.8,65.4-156.3c21.7-24.1,70.4-70.6,144.7-84.4c18.5-3.4,35.8-4.3,51-3.8
		c1.3,2.6,3.4,6.5,6.3,11.1c2.2,3.4,4,5.8,4.7,6.7c5.3,7.1,10.9,15.6,16,23.5c3.8,5.8,11.5,17.8,18.4,33.7
		c3.4,7.7,7.4,18.4,10.6,31.7c-14.5-5-39.4-11.3-70.1-8.5c-20.8,1.9-37.7,7.4-49.5,12.4c-15.6,7.1-42.7,22.1-65.3,51.4
		c-11.7,15.2-18.9,30-23.5,41.8c-5.2,16.7-9.8,38.8-9.8,64.7c0,10.2,0.8,19.6,1.9,28.2c5.1,17.7,15.3,44.5,36.7,71.2
		c6.3,7.9,15.9,19.8,31.3,31c29.5,21.5,61.2,26.9,80.8,28.1c-12.8,18.5-25.9,30.4-35.3,37.6c-7.5,5.8-14.3,9.9-18.9,12.7
		c-14.2,8.6-26.9,14.4-36.2,18.2c-0.7,0-3.2,0.2-5.4,2.2c-1.7,1.6-2.3,3.5-2.5,4.3c-23.4-10.7-57.6-30.3-88.2-65.4
		c-18.6-21.3-30-41.7-36.5-54.9C11.4,417,5.5,387.7,3.1,368C0.5,351.6-0.8,332.8,0.6,311.9L0.6,311.9z"/>
	<path class="st1" d="M261.7,67.2c0.3,1,0.8,2.7,1.8,4.5c1.8,3.6,3.9,5.9,4.5,6.5c0,0,4.5,6.4,13.4,19.3
		c7.1,10.3,18.8,27.1,27.7,49.1c2.6,6.3,5.9,15.6,8.8,27.4c12.5,5,30.1,13.7,48.2,28.7c7,5.8,21.3,17.8,34.1,37.4
		c22.9,35,25.1,69.8,25.8,82.2c2,38.3-9.3,66.4-11.7,72.1c-14.4,34.7-37.2,54.4-47.1,62.7c-11.6,9.8-36.5,30.2-74.7,36.6
		c-17.5,2.9-32.3,2-42.1,0.7c-7.3,9.4-24.1,29.9-40.6,41.5c-3.4,2.4-7.7,5.1-7.7,5.1c-7.1,4.6-16,10.3-27.4,15.5
		c-9.2,4.2-13.8,6.2-14.5,6.4c-1,0.2-3.8,0.5-5.8,2.5c-1.3,1.3-1.9,2.9-2.1,4c19.9,9.2,53.5,21.8,96.7,24.2
		c25.1,1.4,83.9,0.9,144.9-34.3c38.1-22,63.1-49.6,78-69.5c8.8-11.7,33-46.4,45.2-98.4c12.7-54.4,5.3-98.4,2-114.8
		c-5.1-24.9-18.1-70.2-54.2-114c-6.7-8.1-24.4-28.6-52.5-48.3c-15.5-10.8-63-43.2-129.7-46.8C273.9,66.9,266.7,67.1,261.7,67.2
		L261.7,67.2z"/>
	<path class="st0" d="M291.9,65.1c0.3,1.6,0.9,3.9,2,6.5c2.2,5.4,5.2,8.4,9,12.9c5.2,6.1,5.6,7.6,9.2,12
		c5.6,6.9,17.5,21.6,37.3,29.2c6.1,2.3,15.4,5.9,27.3,4.7c9.5-1,17.9-4.8,27.9-9.2c4.6-2,8.3-3.9,10.9-5.3
		c-6.7-4.8-12.3-9-16.5-12.2c-2.8-2.2-5.5-4.3-9.1-7.2c-5-4.2-5.8-5.1-8.1-6.9c-5.2-4-9.9-6.1-14-7.9C351,74.3,328,70.3,319.1,68.8
		C312.3,67.7,303,66.3,291.9,65.1L291.9,65.1z"/>
	<path class="st1" d="M418.4,111.7c-2.9-7.1-8.7-24.5-4.1-45.8c1.2-5.5,4.6-20.3,16.9-33.8c8.7-9.5,18.2-14.3,23.8-17.1
		c9.6-4.8,18.8-7.1,23.4-8.2c3.8-0.9,10-2.3,16.9-3.5c6.5-1.1,7.2-0.9,11.7-2c2.5-0.6,4.6-1.2,7.7-1.3c3-0.2,5.5,0.1,7.1,0.4
		c-1.8,27.2-5.3,46.1-8.3,58.3c-0.6,2.4-1,3.8-1.4,5.4c-2.2,7.3-8.3,26.4-26.6,40.3c-3.1,2.3-14.2,10.4-31.1,13.5
		c-13.1,2.4-24,0.7-30.3-0.7C422.1,115.4,420.2,113.5,418.4,111.7L418.4,111.7z"/>
	<path class="st0" d="M418.3,118.3c-0.5-0.8-0.3-1.6-0.2-2.8c0.1-0.8,0.2-1.9,0.2-3.3c0-0.2,0-0.3,0-0.5c0.3,0,0.8,0.1,1.4-0.1
		c1-0.3,1.6-0.9,1.8-1.2c0.9-1.8,2.2-4.1,3.8-6.8c1.1-1.8,2.1-3.5,2.7-4.5c0.6-1,3.2-5.2,7.8-11.2c7-9.2,16-19.1,17.7-21.1
		c0.6-1.9,1.5-3,2.2-3.7c1.3-1.1,2-0.8,3.1-2.1c0.4-0.5,0.9-1.2,2-2.8c0.4-0.5,0.4-0.6,0.6-0.8c0.9-1.1,1.5-1,2.2-1.8
		c0.5-0.7,0.3-1,0.8-1.3c0.6-0.4,1-0.1,1.4-0.5c0.4-0.4,0.1-0.8,0.4-2c0.1-0.5,0.3-1.4,1-2c0.5-0.4,1.3-0.8,1.7-0.5
		c0.4,0.3,0,1.4,0,1.6c-0.4,1.1-1.1,1.6-1.8,2.2c-1.5,1.5-0.9,1.7-2.9,4.2c-1,1.2-1.3,1.4-1.8,2.3c-0.2,0.3-0.5,0.9-1,1.7
		c-0.3,0.5-0.6,0.8-0.7,0.9c-1,1.2-1.5,2.6-1.8,3.2c-0.9,2-2.7,3.4-3.8,4.3c-2.9,2.7-4.4,6.4-6.9,11.2c-2.3,4.2-5.9,9.2-13.1,19.2
		c-1.3,1.8-3.7,5.1-7.5,8.8c-0.6,0.6-1,1-1.4,1.3c-0.6,0.6-1.8,2.1-2.2,4.3c-0.2,1-0.1,1.9-0.1,2.6c-0.3,0-1.3,0.1-2.2,0.9
		c-0.7,0.6-1,1.4-1.1,1.7c-0.3,0-0.9-0.1-1.5-0.5C419.1,119.2,418.6,118.9,418.3,118.3L418.3,118.3z"/>
	<text transform="matrix(1 0 0 1 412.57 330.5)" class="st2 st3 st4">Money</text>
	<text transform="matrix(1 0 0 1 513.84 481.47)" class="st2 st3 st5">nesty</text>
	<circle class="st1" cx="253.8" cy="325.3" r="69.9"/>
	<path class="st6" d="M241.8,388.1c0.8,2.4,8.7,24.2,32.3,31.9c2,0.7,24.8,7.6,45.1-7.1c15-10.8,23.1-29.2,20.7-47.6
		c-2.8-21.2-18.4-32.8-21.2-34.8"/>
	<text transform="matrix(0.83 0 0 1 223.5801 353.9396)" class="st7 st8 st9">s</text>
	<line class="st10" x1="251.4" y1="274" x2="251.4" y2="292.6"/>
	<line class="st10" x1="251.4" y1="343.7" x2="251.4" y2="361"/>
</g>
<path class="st0" d="M48.6-139.3c1.6-23.6,13.7-40.6,20.3-48.5c6.7-7.5,21.9-21.9,44.9-26.2c5.8-1.1,11.1-1.3,15.9-1.2
	c0.4,0.8,1,2,2,3.5c0.7,1.1,1.2,1.8,1.5,2.1c1.7,2.2,3.4,4.8,5,7.3c1.2,1.8,3.6,5.5,5.7,10.5c1,2.4,2.3,5.7,3.3,9.9
	c-4.5-1.5-12.2-3.5-21.8-2.6c-6.5,0.6-11.7,2.3-15.4,3.8c-4.9,2.2-13.3,6.9-20.3,16c-3.6,4.7-5.9,9.3-7.3,13c-1.6,5.2-3.1,12-3,20.1
	c0,3.2,0.2,6.1,0.6,8.7c1.6,5.5,4.8,13.8,11.4,22.1c2,2.5,4.9,6.1,9.7,9.6c9.2,6.7,19,8.3,25.1,8.7c-4,5.8-8.1,9.4-11,11.7
	c-2.3,1.8-4.4,3.1-5.9,3.9c-4.4,2.7-8.3,4.5-11.2,5.7c-0.2,0-1,0.1-1.7,0.7c-0.5,0.5-0.7,1.1-0.8,1.3c-7.3-3.3-17.9-9.4-27.4-20.3
	c-5.8-6.6-9.3-13-11.3-17.1c-4.9-10-6.8-19.2-7.5-25.3C48.6-127,48.2-132.8,48.6-139.3L48.6-139.3z"/>
<text transform="matrix(1 0 0 1 202.0727 -90.6235)" class="st3" style="fill:#DDDDDD; font-size:42px;">nesty</text>
<path class="st1" d="M129.8-215.3c0.1,0.3,0.3,0.8,0.5,1.4c0.6,1.1,1.2,1.8,1.4,2c0,0,1.4,2,4.2,6c2.2,3.2,5.8,8.4,8.6,15.2
	c0.8,2,1.8,4.8,2.7,8.5c3.9,1.6,9.4,4.3,15,8.9c2.2,1.8,6.6,5.5,10.6,11.6c7.1,10.9,7.8,21.7,8,25.5c0.6,11.9-2.9,20.6-3.6,22.4
	c-4.5,10.8-11.6,16.9-14.6,19.5c-3.6,3-11.3,9.4-23.2,11.4c-5.4,0.9-10,0.6-13.1,0.2c-2.3,2.9-7.5,9.3-12.6,12.9
	c-1.1,0.7-2.4,1.6-2.4,1.6c-2.2,1.4-5,3.2-8.5,4.8c-2.9,1.3-4.3,1.9-4.5,2c-0.3,0-1.2,0.1-1.8,0.8c-0.4,0.4-0.6,0.9-0.7,1.2
	c6.2,2.9,16.6,6.8,30,7.5c7.8,0.4,26.1,0.3,45-10.7c11.8-6.8,19.6-15.4,24.2-21.6c2.7-3.6,10.3-14.4,14-30.6
	c4-16.9,1.7-30.6,0.6-35.7c-1.6-7.7-5.6-21.8-16.8-35.4c-2.1-2.5-7.6-8.9-16.3-15c-4.8-3.4-19.6-13.4-40.3-14.6
	C133.5-215.4,131.3-215.4,129.8-215.3L129.8-215.3z"/>
<path class="st0" d="M139.1-216c0.1,0.5,0.3,1.2,0.6,2c0.7,1.7,1.6,2.6,2.8,4c1.6,1.9,1.7,2.4,2.8,3.7c1.7,2.1,5.4,6.7,11.6,9.1
	c1.9,0.7,4.8,1.8,8.5,1.5c2.9-0.3,5.6-1.5,8.7-2.9c1.4-0.6,2.6-1.2,3.4-1.7c-2.1-1.5-3.8-2.8-5.1-3.8c-0.9-0.7-1.7-1.3-2.8-2.2
	c-1.6-1.3-1.8-1.6-2.5-2.1c-1.6-1.3-3.1-1.9-4.3-2.4c-5.2-2.3-12.3-3.5-15.1-4C145.5-215.2,142.6-215.6,139.1-216L139.1-216z"/>
<path class="st1" d="M178.4-201.5c-0.9-2.2-2.7-7.6-1.3-14.2c0.4-1.7,1.4-6.3,5.3-10.5c2.7-3,5.7-4.5,7.4-5.3c3-1.5,5.8-2.2,7.3-2.6
	c1.2-0.3,3.1-0.7,5.2-1.1c2-0.3,2.2-0.3,3.6-0.6c0.8-0.2,1.4-0.4,2.4-0.4c0.9-0.1,1.7,0,2.2,0.1c-0.6,8.5-1.7,14.3-2.6,18.1
	c-0.2,0.7-0.3,1.2-0.4,1.7c-0.7,2.3-2.6,8.2-8.3,12.5c-1,0.7-4.4,3.2-9.7,4.2c-4.1,0.7-7.5,0.2-9.4-0.2
	C179.6-200.3,179-200.9,178.4-201.5L178.4-201.5z"/>
<path class="st0" d="M178.4-199.4c-0.1-0.3-0.1-0.5-0.1-0.9c0-0.2,0.1-0.6,0.1-1c0,0,0-0.1,0-0.1c0.1,0,0.3,0,0.4,0
	c0.3-0.1,0.5-0.3,0.6-0.4c0.3-0.5,0.7-1.3,1.2-2.1c0.3-0.6,0.6-1.1,0.8-1.4c0.2-0.3,1-1.6,2.4-3.5c2.2-2.9,5-5.9,5.5-6.6
	c0.2-0.6,0.5-0.9,0.7-1.1c0.4-0.3,0.6-0.3,1-0.7c0.1-0.1,0.3-0.4,0.6-0.9c0.1-0.2,0.1-0.2,0.2-0.2c0.3-0.3,0.5-0.3,0.7-0.6
	c0.2-0.2,0.1-0.3,0.3-0.4c0.2-0.1,0.3,0,0.4-0.2c0.1-0.1,0-0.3,0.1-0.6c0-0.2,0.1-0.4,0.3-0.6c0.2-0.1,0.4-0.2,0.5-0.1
	c0.1,0.1,0,0.4,0,0.5c-0.1,0.3-0.3,0.5-0.5,0.7c-0.5,0.5-0.3,0.5-0.9,1.3c-0.3,0.4-0.4,0.4-0.6,0.7c-0.1,0.1-0.1,0.3-0.3,0.5
	c-0.1,0.1-0.2,0.2-0.2,0.3c-0.3,0.4-0.5,0.8-0.5,1c-0.3,0.6-0.8,1-1.2,1.4c-0.9,0.8-1.4,2-2.2,3.5c-0.7,1.3-1.8,2.9-4.1,6
	c-0.4,0.5-1.1,1.6-2.3,2.7c-0.2,0.2-0.3,0.3-0.4,0.4c-0.2,0.2-0.6,0.6-0.7,1.3c-0.1,0.3,0,0.6,0,0.8c-0.1,0-0.4,0-0.7,0.3
	c-0.2,0.2-0.3,0.4-0.3,0.5c-0.1,0-0.3,0-0.5-0.2C178.6-199.2,178.5-199.3,178.4-199.4L178.4-199.4z"/>
<text transform="matrix(1 0 0 1 172.6152 -136.521)" class="st3" style="fill:#DDDDDD; font-size:52.2999px;">Money</text>
<circle class="st1" cx="127.3" cy="-135.1" r="21.7"/>
<path class="st11" d="M123.6-115.6c0.3,0.7,2.7,7.5,10,9.9c0.6,0.2,7.7,2.4,14-2.2c4.7-3.3,7.2-9.1,6.4-14.8
	c-0.9-6.6-5.7-10.2-6.6-10.8"/>
<text transform="matrix(0.83 0 0 1 117.9067 -124.2398)" class="st8" style="fill:#DDDDDD; font-size:40.0575px;">s</text>
<line class="st12" x1="126.5" y1="-148.9" x2="126.5" y2="-144.3"/>
<line class="st12" x1="126.5" y1="-126.4" x2="126.5" y2="-121.9"/>
</svg>
