<?xml version="1.0" encoding="UTF-8"?>
<svg id="Layer_2" data-name="Layer 2" xmlns="http://www.w3.org/2000/svg" viewBox="0 0 1015.47 593.93">
  <defs>
    <style>
      .cls-1 {
        font-size: 168.36px;
      }

      .cls-1, .cls-2 {
        fill: #cecece;
        font-family: Poppins-ExtraBoldItalic, Poppins;
        font-style: italic;
        font-weight: 700;
      }

      .cls-3 {
        stroke: #000;
        stroke-width: 6px;
      }

      .cls-3, .cls-4 {
        fill: none;
        stroke-linecap: round;
        stroke-miterlimit: 10;
      }

      .cls-5 {
        fill: #ccc;
        font-family: Poppins-SemiBold, Poppins;
        font-size: 128.95px;
        font-weight: 600;
      }

      .cls-2 {
        font-size: 141px;
      }

      .cls-6 {
        fill: #42cc49;
      }

      .cls-4 {
        stroke: #fff;
        stroke-width: 5px;
      }

      .cls-7 {
        fill: #1a1a1a;
      }
    </style>
  </defs>
  <g id="Layer_1-2" data-name="Layer 1">
    <path class="cls-7" d="M.56,311.92c5.12-76.1,44.12-130.81,65.37-156.26,21.71-24.06,70.42-70.59,144.67-84.41,18.54-3.45,35.76-4.32,51.04-3.8,1.28,2.58,3.37,6.54,6.34,11.14,2.2,3.41,4.01,5.82,4.67,6.7,5.32,7.13,10.85,15.59,16.03,23.54,3.81,5.84,11.53,17.77,18.42,33.69,3.35,7.73,7.38,18.42,10.61,31.74-14.52-4.97-39.36-11.31-70.11-8.48-20.79,1.92-37.65,7.42-49.48,12.38-15.65,7.11-42.72,22.09-65.27,51.39-11.67,15.16-18.92,30-23.5,41.81-5.16,16.74-9.83,38.79-9.8,64.73.01,10.19.75,19.62,1.88,28.16,5.12,17.67,15.33,44.46,36.71,71.25,6.31,7.91,15.91,19.77,31.27,30.99,29.49,21.55,61.18,26.87,80.78,28.14-12.75,18.53-25.94,30.39-35.27,37.58-7.46,5.75-14.3,9.93-18.86,12.7-14.2,8.64-26.87,14.43-36.16,18.2-.72.03-3.25.24-5.42,2.25-1.74,1.6-2.31,3.49-2.49,4.26-23.36-10.65-57.62-30.26-88.2-65.35-18.57-21.31-30.01-41.69-36.52-54.94-15.85-32.29-21.76-61.68-24.17-81.34-2.58-16.36-3.95-35.24-2.55-56.04Z"/>
    <path class="cls-6" d="M261.71,67.23c.31,1.04.84,2.65,1.77,4.51,1.79,3.6,3.91,5.88,4.51,6.54.02.02,4.47,6.44,13.36,19.28,7.11,10.27,18.77,27.11,27.69,49.09,2.56,6.31,5.93,15.61,8.76,27.39,12.5,5.03,30.13,13.71,48.19,28.67,7.04,5.82,21.3,17.81,34.12,37.44,22.88,35.04,25.11,69.84,25.75,82.2,1.97,38.27-9.34,66.42-11.68,72.06-14.42,34.7-37.25,54.41-47.08,62.69-11.59,9.76-36.51,30.24-74.72,36.61-17.47,2.91-32.26,1.97-42.09.68-7.32,9.38-24.06,29.9-40.65,41.49-3.43,2.4-7.68,5.14-7.68,5.14-7.09,4.57-16.03,10.34-27.43,15.51-9.19,4.17-13.79,6.25-14.54,6.36-1.02.15-3.76.46-5.79,2.52-1.28,1.3-1.85,2.86-2.12,3.99,19.91,9.21,53.48,21.82,96.71,24.17,25.07,1.36,83.91.93,144.94-34.35,38.12-22.04,63.1-49.58,77.96-69.52,8.75-11.74,33.05-46.42,45.21-98.37,12.73-54.35,5.34-98.42,1.97-114.82-5.1-24.9-18.15-70.23-54.18-114-6.67-8.11-24.35-28.57-52.51-48.27-15.49-10.84-63.05-43.25-129.66-46.84-8.62-.46-15.82-.35-20.81-.16Z"/>
    <path class="cls-7" d="M291.92,65.06c.3,1.57.87,3.9,1.98,6.54,2.25,5.36,5.21,8.36,9,12.88,5.16,6.14,5.61,7.63,9.17,12.02,5.61,6.92,17.5,21.57,37.3,29.19,6.09,2.34,15.4,5.93,27.29,4.68,9.45-.99,17.93-4.77,27.87-9.19,4.59-2.04,8.32-3.95,10.89-5.33-6.74-4.8-12.28-8.99-16.49-12.25-2.77-2.15-5.49-4.26-9.09-7.24-5.05-4.18-5.79-5.06-8.14-6.87-5.23-4.03-9.92-6.1-13.97-7.86-16.77-7.29-39.71-11.35-48.64-12.84-6.79-1.13-16.05-2.52-27.18-3.72Z"/>
    <path class="cls-6" d="M418.37,111.71c-2.86-7.12-8.71-24.53-4.1-45.82,1.19-5.48,4.6-20.35,16.91-33.79,8.73-9.53,18.25-14.33,23.8-17.07,9.65-4.76,18.79-7.05,23.44-8.21,3.75-.94,10-2.33,16.85-3.49,6.53-1.11,7.21-.92,11.7-1.95,2.52-.57,4.58-1.15,7.66-1.33,2.98-.18,5.45.09,7.12.37-1.79,27.23-5.33,46.08-8.29,58.3-.57,2.38-.96,3.8-1.43,5.37-2.2,7.28-8.28,26.38-26.62,40.35-3.08,2.35-14.21,10.42-31.12,13.5-13.15,2.4-24.04.73-30.31-.72-1.88-1.84-3.75-3.68-5.63-5.52Z"/>
    <path class="cls-7" d="M418.31,118.28c-.45-.81-.31-1.57-.18-2.84.08-.77.18-1.91.23-3.33.01-.16.02-.32.03-.47.32.03.82.05,1.38-.12,1-.29,1.59-.93,1.83-1.21.93-1.75,2.2-4.08,3.78-6.8,1.07-1.85,2.07-3.5,2.7-4.53.62-1,3.21-5.16,7.82-11.19,7.02-9.18,15.97-19.13,17.74-21.1.57-1.94,1.48-3.03,2.19-3.65,1.28-1.12,1.96-.81,3.08-2.12.39-.46.92-1.23,1.98-2.79.36-.52.41-.61.57-.8.91-1.07,1.5-.95,2.16-1.84.49-.66.34-.95.83-1.3.57-.4.96-.14,1.35-.5.41-.38.15-.82.41-1.95.13-.55.33-1.44,1.03-2.02.5-.42,1.34-.76,1.71-.45.41.35.05,1.37-.03,1.61-.38,1.06-1.06,1.56-1.75,2.25-1.46,1.45-.86,1.65-2.92,4.18-.98,1.2-1.33,1.42-1.84,2.35-.19.34-.48.92-1.02,1.69-.32.46-.58.76-.69.91-.97,1.2-1.52,2.65-1.75,3.19-.89,2.02-2.68,3.36-3.76,4.35-2.87,2.66-4.38,6.43-6.94,11.2-2.28,4.24-5.88,9.22-13.07,19.17-1.27,1.75-3.7,5.07-7.52,8.83-.57.56-1.04,1-1.37,1.3-.61.64-1.8,2.09-2.2,4.26-.19,1.04-.15,1.94-.06,2.61-.33.02-1.31.14-2.2.91-.72.63-1.01,1.37-1.12,1.7-.28-.01-.89-.08-1.5-.5-.12-.08-.58-.41-.9-.99Z"/>
    <text class="cls-1" transform="translate(412.57 330.5)"><tspan x="0" y="0">Money</tspan></text>
    <text class="cls-2" transform="translate(513.84 481.47)"><tspan x="0" y="0">nesty</tspan></text>
    <circle class="cls-6" cx="253.76" cy="325.34" r="69.92"/>
    <path class="cls-3" d="M241.77,388.12c.81,2.38,8.68,24.2,32.32,31.85,2.04.66,24.75,7.58,45.12-7.07,14.98-10.78,23.13-29.23,20.71-47.57-2.79-21.19-18.44-32.82-21.24-34.83"/>
    <text class="cls-5" transform="translate(223.58 353.94) scale(.83 1)"><tspan x="0" y="0">s</tspan></text>
    <line class="cls-4" x1="251.4" y1="273.98" x2="251.4" y2="292.56"/>
    <line class="cls-4" x1="251.4" y1="343.74" x2="251.4" y2="361.01"/>
  </g>
</svg>