<?xml version="1.0" encoding="utf-8"?>
<!-- Generator: Adobe Illustrator 28.2.0, SVG Export Plug-In . SVG Version: 6.00 Build 0)  -->
<svg version="1.1" id="Layer_1" xmlns="http://www.w3.org/2000/svg" xmlns:xlink="http://www.w3.org/1999/xlink" x="0px" y="0px"
	 viewBox="0 0 524.1 593.9" style="enable-background:new 0 0 524.1 593.9;" xml:space="preserve">
<style type="text/css">
	.st0{fill:#494949;}
	.st1{fill:#A1FFA1;}
	.st2{fill:none;stroke:#000000;stroke-width:6;stroke-linecap:round;stroke-miterlimit:10;}
	.st3{font-family:'ArialMT';}
	.st4{font-size:128.95px;}
	.st5{fill:none;stroke:#000000;stroke-width:5;stroke-linecap:round;stroke-miterlimit:10;}
	.st6{fill:none;stroke:#333333;stroke-width:4;stroke-linecap:round;stroke-miterlimit:10;}
	.st7{fill:none;stroke:#333333;stroke-width:3;stroke-linecap:round;stroke-miterlimit:10;}
	.st8{fill:#333333;}
	.st9{fill:#3F4040;}
</style>
<g id="Layer_2_00000041280280545390340000000010024353113774114440_">
	<g id="Layer_1-2">
		<path class="st0" d="M0.6,311.9c5.1-76.1,44.1-130.8,65.4-156.3c21.7-24.1,70.4-70.6,144.7-84.4c16.8-3.1,33.9-4.4,51-3.8
			c1.9,3.8,4.1,7.5,6.4,11.1c2.2,3.4,4,5.8,4.7,6.7c5.3,7.1,10.9,15.6,16,23.5c7.1,10.7,13.3,21.9,18.4,33.7
			c4.4,10.3,8,20.9,10.6,31.7c-39-13.5-81.6-12.1-119.6,3.9c-25.6,11.5-48,29.2-65.3,51.4c-9.8,12.7-17.7,26.8-23.5,41.8
			c-6.5,21-9.8,42.8-9.8,64.7c0,9.4,0.6,18.8,1.9,28.2c7.5,25.9,19.9,50.1,36.7,71.2c6.3,7.9,15.9,19.8,31.3,31
			c29.5,21.5,61.2,26.9,80.8,28.1c-9.7,14.3-21.6,27-35.3,37.6c-6,4.6-12.3,8.8-18.9,12.7c-11.5,7-23.6,13.1-36.2,18.2
			c-2,0.1-3.9,0.9-5.4,2.2c-1.2,1.1-2.1,2.6-2.5,4.3c-33.7-15.3-63.8-37.5-88.2-65.4C30.4,465.9,9.3,418.5,3.1,368
			C0.2,349.5-0.7,330.6,0.6,311.9z"/>
		<path class="st1" d="M261.7,67.2c0.5,1.5,1.1,3.1,1.8,4.5c1.2,2.4,2.7,4.6,4.5,6.5c0,0,4.5,6.4,13.4,19.3
			c7.1,10.3,18.8,27.1,27.7,49.1c3.6,8.9,6.5,18,8.8,27.3c17.5,7,33.7,16.7,48.2,28.7c13.2,10.6,24.8,23.3,34.1,37.4
			c22.9,35,25.1,69.8,25.7,82.2c2,38.3-9.3,66.4-11.7,72.1c-14.4,34.7-37.2,54.4-47.1,62.7c-11.6,9.8-36.5,30.2-74.7,36.6
			c-13.9,2.3-28.1,2.5-42.1,0.7c-7.3,9.4-24.1,29.9-40.7,41.5c-3.4,2.4-7.6,5.1-7.6,5.1c-8.7,5.9-17.9,11.1-27.4,15.5
			c-9.2,4.2-13.8,6.2-14.5,6.3c-2.2,0.2-4.2,1.1-5.8,2.5c-1.1,1.1-1.8,2.5-2.1,4c30.4,14.1,63.2,22.3,96.7,24.2
			c25.1,1.4,83.9,0.9,144.9-34.3c30.4-17.6,57-41.3,78-69.5c44.9-61.3,62-138.7,47.2-213.2c-8.5-41.8-27.1-81-54.2-114
			c-15.3-18.4-32.9-34.6-52.5-48.3c-15.6-10.8-63.2-43.2-129.8-46.8C273.9,66.9,266.7,67,261.7,67.2z"/>
		<path class="st0" d="M291.9,65.1c0.4,2.2,1.1,4.4,2,6.5c2.2,5.4,5.2,8.4,9,12.9c5.2,6.1,5.6,7.6,9.2,12
			c5.6,6.9,17.5,21.6,37.3,29.2c6.1,2.3,15.4,5.9,27.3,4.7c9.5-1,17.9-4.8,27.9-9.2c4.6-2.1,8.3-4,10.9-5.3
			c-6.7-4.8-12.3-9-16.5-12.3c-2.8-2.1-5.5-4.3-9.1-7.2c-5-4.2-5.8-5.1-8.1-6.9c-4.3-3.2-9-5.9-14-7.9C351,74.3,328,70.3,319.1,68.8
			C312.3,67.7,303,66.3,291.9,65.1z"/>
		<path class="st1" d="M418.4,111.7c-5.9-14.5-7.3-30.5-4.1-45.8c2.5-12.6,8.3-24.3,16.9-33.8c8.7-9.5,18.2-14.3,23.8-17.1
			c7.5-3.6,15.4-6.3,23.4-8.2c3.8-0.9,10-2.3,16.9-3.5c6.5-1.1,7.2-0.9,11.7-2c2.5-0.7,5.1-1.1,7.6-1.3c2.4-0.1,4.8,0,7.1,0.4
			c-1.8,27.2-5.3,46.1-8.3,58.3c-0.6,2.4-1,3.8-1.4,5.4c-2.2,7.3-8.3,26.4-26.6,40.3c-9.2,6.9-19.8,11.5-31.1,13.6
			c-10,1.8-20.4,1.6-30.3-0.7L418.4,111.7z"/>
		<path class="st0" d="M418.3,118.3c-0.4-0.8-0.3-1.6-0.2-2.8c0.1-0.8,0.2-1.9,0.2-3.3v-0.5c0.5,0,0.9,0,1.4-0.1
			c0.7-0.2,1.4-0.6,1.8-1.2c0.9-1.8,2.2-4.1,3.8-6.8c1.1-1.8,2.1-3.5,2.7-4.5s3.2-5.2,7.8-11.2c7-9.2,16-19.1,17.8-21.1
			c0.4-1.4,1.1-2.7,2.2-3.7c1.3-1.1,2-0.8,3.1-2.1c0.4-0.5,0.9-1.2,2-2.8c0.2-0.3,0.4-0.5,0.6-0.8c0.9-1.1,1.5-1,2.2-1.8
			c0.5-0.7,0.3-1,0.8-1.3s1-0.1,1.4-0.5s0.1-0.8,0.4-2c0.1-0.8,0.5-1.5,1-2c0.5-0.4,1.3-0.8,1.7-0.5s0,1.4,0,1.6
			c-0.4,0.9-1,1.7-1.8,2.2c-1.5,1.5-0.9,1.7-2.9,4.2c-0.7,0.7-1.3,1.5-1.8,2.3c-0.3,0.6-0.6,1.1-1,1.7c-0.3,0.5-0.6,0.8-0.7,0.9
			c-0.7,1-1.3,2.1-1.7,3.3c-0.9,2-2.7,3.3-3.8,4.3c-2.9,2.7-4.4,6.4-7,11.2c-2.3,4.2-5.9,9.2-13.1,19.2c-2.2,3.2-4.8,6.1-7.5,8.8
			c-0.6,0.6-1,1-1.4,1.3c-1.1,1.2-1.9,2.7-2.2,4.3c-0.2,0.9-0.2,1.7-0.1,2.6c-0.8,0.1-1.6,0.4-2.2,0.9c-0.5,0.5-0.9,1-1.1,1.7
			c-0.5,0-1.1-0.2-1.5-0.5C418.9,119,418.5,118.7,418.3,118.3z"/>
		<circle class="st1" cx="251.4" cy="321.4" r="69.9"/>
		<path class="st2" d="M241.8,388.1c0.8,2.4,8.7,24.2,32.3,31.9c2,0.7,24.8,7.6,45.1-7.1c15.1-10.9,23-29.1,20.7-47.6
			c-2.8-21.2-18.4-32.8-21.2-34.8"/>
		<text transform="matrix(0.83 0 0 1 226.9399 347.92)" class="st0 st3 st4">s</text>
		<line class="st5" x1="251.4" y1="279.5" x2="251.4" y2="292.6"/>
		<line class="st5" x1="251.4" y1="343.7" x2="251.4" y2="356.8"/>
	</g>
</g>
<path class="st0" d="M-378.1,102.5c1.6-23.6,13.7-40.6,20.3-48.5c6.7-7.5,21.9-21.9,44.9-26.2c5.8-1.1,11.1-1.3,15.9-1.2
	c0.4,0.8,1,2,2,3.5c0.7,1.1,1.2,1.8,1.5,2.1c1.7,2.2,3.4,4.8,5,7.3c1.2,1.8,3.6,5.5,5.7,10.5c1,2.4,2.3,5.7,3.3,9.9
	c-4.5-1.5-12.2-3.5-21.8-2.6c-6.5,0.6-11.7,2.3-15.4,3.8c-4.9,2.2-13.3,6.9-20.3,16c-3.6,4.7-5.9,9.3-7.3,13c-1.6,5.2-3.1,12-3,20.1
	c0,3.2,0.2,6.1,0.6,8.7c1.6,5.5,4.8,13.8,11.4,22.1c2,2.5,4.9,6.1,9.7,9.6c9.2,6.7,19,8.3,25.1,8.7c-4,5.8-8.1,9.4-11,11.7
	c-2.3,1.8-4.4,3.1-5.9,3.9c-4.4,2.7-8.3,4.5-11.2,5.7c-0.2,0-1,0.1-1.7,0.7c-0.5,0.5-0.7,1.1-0.8,1.3c-7.3-3.3-17.9-9.4-27.4-20.3
	c-5.8-6.6-9.3-13-11.3-17.1c-4.9-10-6.8-19.2-7.5-25.3C-378.1,114.8-378.5,108.9-378.1,102.5L-378.1,102.5z"/>
<text transform="matrix(1 0 0 1 -224.647 151.1465)" class="st8" style="font-family:'Poppins-BoldItalic'; font-size:42px;">nesty</text>
<path class="st1" d="M-297,26.5c0.1,0.3,0.3,0.8,0.5,1.4c0.6,1.1,1.2,1.8,1.4,2c0,0,1.4,2,4.2,6c2.2,3.2,5.8,8.4,8.6,15.2
	c0.8,2,1.8,4.8,2.7,8.5c3.9,1.6,9.4,4.3,15,8.9c2.2,1.8,6.6,5.5,10.6,11.6c7.1,10.9,7.8,21.7,8,25.5c0.6,11.9-2.9,20.6-3.6,22.4
	c-4.5,10.8-11.6,16.9-14.6,19.5c-3.6,3-11.3,9.4-23.2,11.4c-5.4,0.9-10,0.6-13.1,0.2c-2.3,2.9-7.5,9.3-12.6,12.9
	c-1.1,0.7-2.4,1.6-2.4,1.6c-2.2,1.4-5,3.2-8.5,4.8c-2.9,1.3-4.3,1.9-4.5,2c-0.3,0-1.2,0.1-1.8,0.8c-0.4,0.4-0.6,0.9-0.7,1.2
	c6.2,2.9,16.6,6.8,30,7.5c7.8,0.4,26.1,0.3,45-10.7c11.8-6.8,19.6-15.4,24.2-21.6c2.7-3.6,10.3-14.4,14-30.6
	c4-16.9,1.7-30.6,0.6-35.7c-1.6-7.7-5.6-21.8-16.8-35.4c-2.1-2.5-7.6-8.9-16.3-15c-4.8-3.4-19.6-13.4-40.3-14.6
	C-293.2,26.4-295.4,26.4-297,26.5L-297,26.5z"/>
<path class="st0" d="M-287.6,25.8c0.1,0.5,0.3,1.2,0.6,2c0.7,1.7,1.6,2.6,2.8,4c1.6,1.9,1.7,2.4,2.8,3.7c1.7,2.1,5.4,6.7,11.6,9.1
	c1.9,0.7,4.8,1.8,8.5,1.5c2.9-0.3,5.6-1.5,8.7-2.9c1.4-0.6,2.6-1.2,3.4-1.7c-2.1-1.5-3.8-2.8-5.1-3.8c-0.9-0.7-1.7-1.3-2.8-2.2
	c-1.6-1.3-1.8-1.6-2.5-2.1c-1.6-1.3-3.1-1.9-4.3-2.4c-5.2-2.3-12.3-3.5-15.1-4C-281.3,26.6-284.1,26.2-287.6,25.8L-287.6,25.8z"/>
<path class="st1" d="M-248.3,40.3c-0.9-2.2-2.7-7.6-1.3-14.2c0.4-1.7,1.4-6.3,5.3-10.5c2.7-3,5.7-4.5,7.4-5.3c3-1.5,5.8-2.2,7.3-2.6
	c1.2-0.3,3.1-0.7,5.2-1.1c2-0.3,2.2-0.3,3.6-0.6c0.8-0.2,1.4-0.4,2.4-0.4c0.9-0.1,1.7,0,2.2,0.1c-0.6,8.5-1.7,14.3-2.6,18.1
	c-0.2,0.7-0.3,1.2-0.4,1.7c-0.7,2.3-2.6,8.2-8.3,12.5c-1,0.7-4.4,3.2-9.7,4.2c-4.1,0.7-7.5,0.2-9.4-0.2
	C-247.1,41.4-247.7,40.9-248.3,40.3L-248.3,40.3z"/>
<path class="st0" d="M-248.3,42.3c-0.1-0.3-0.1-0.5-0.1-0.9c0-0.2,0.1-0.6,0.1-1c0,0,0-0.1,0-0.1c0.1,0,0.3,0,0.4,0
	c0.3-0.1,0.5-0.3,0.6-0.4c0.3-0.5,0.7-1.3,1.2-2.1c0.3-0.6,0.6-1.1,0.8-1.4c0.2-0.3,1-1.6,2.4-3.5c2.2-2.9,5-5.9,5.5-6.6
	c0.2-0.6,0.5-0.9,0.7-1.1c0.4-0.3,0.6-0.3,1-0.7c0.1-0.1,0.3-0.4,0.6-0.9c0.1-0.2,0.1-0.2,0.2-0.2c0.3-0.3,0.5-0.3,0.7-0.6
	c0.2-0.2,0.1-0.3,0.3-0.4c0.2-0.1,0.3,0,0.4-0.2c0.1-0.1,0-0.3,0.1-0.6c0-0.2,0.1-0.4,0.3-0.6c0.2-0.1,0.4-0.2,0.5-0.1
	c0.1,0.1,0,0.4,0,0.5c-0.1,0.3-0.3,0.5-0.5,0.7c-0.5,0.5-0.3,0.5-0.9,1.3c-0.3,0.4-0.4,0.4-0.6,0.7c-0.1,0.1-0.1,0.3-0.3,0.5
	c-0.1,0.1-0.2,0.2-0.2,0.3c-0.3,0.4-0.5,0.8-0.5,1c-0.3,0.6-0.8,1-1.2,1.4c-0.9,0.8-1.4,2-2.2,3.5c-0.7,1.3-1.8,2.9-4.1,6
	c-0.4,0.5-1.1,1.6-2.3,2.7c-0.2,0.2-0.3,0.3-0.4,0.4c-0.2,0.2-0.6,0.6-0.7,1.3c-0.1,0.3,0,0.6,0,0.8c-0.1,0-0.4,0-0.7,0.3
	c-0.2,0.2-0.3,0.4-0.3,0.5c-0.1,0-0.3,0-0.5-0.2C-248.1,42.6-248.2,42.5-248.3,42.3L-248.3,42.3z"/>
<text transform="matrix(1 0 0 1 -254.1045 105.2491)" class="st8" style="font-family:'Poppins-BoldItalic'; font-size:52.2999px;">Money</text>
<circle class="st1" cx="-299.4" cy="106.6" r="21.7"/>
<path class="st6" d="M-303.2,126.1c0.3,0.7,2.7,7.5,10,9.9c0.6,0.2,7.7,2.4,14-2.2c4.7-3.3,7.2-9.1,6.4-14.8
	c-0.9-6.6-5.7-10.2-6.6-10.8"/>
<text transform="matrix(0.83 0 0 1 -308.813 117.5303)" class="st8" style="font-family:'Poppins-SemiBold'; font-size:40.0575px;">s</text>
<line class="st7" x1="-300.2" y1="92.8" x2="-300.2" y2="97.5"/>
<line class="st7" x1="-300.2" y1="115.4" x2="-300.2" y2="119.8"/>
<rect x="-241" y="320.8" class="st8" width="33.6" height="33.6"/>
<rect x="-241" y="359.2" class="st9" width="33.6" height="33.6"/>
</svg>
