<svg width="53" height="69" viewBox="0 0 53 69" fill="none" xmlns="http://www.w3.org/2000/svg">
<g clip-path="url(#clip0_415_4)">
<path d="M26.5 0C11.8625 0 0 11.569 0 25.8443C0 40.1197 20.8793 69 26.5 69C31.6726 69 53 40.1197 53 25.8443C53 11.569 41.1375 0 26.5 0ZM44.337 43.24C39.5731 47.886 33.237 50.4467 26.5 50.4467C19.763 50.4467 13.4269 47.886 8.66301 43.24C3.89914 38.594 1.27351 32.4147 1.27351 25.8443C1.27351 19.274 3.89914 13.0947 8.66301 8.44867C8.77306 8.34133 8.89098 8.234 9.0089 8.13433C8.92243 8.40267 8.82023 8.66333 8.66301 8.89333C8.28567 9.43767 7.66464 9.66 7.27158 10.166C6.91783 10.6337 6.62697 11.339 6.49333 11.8603C6.35182 12.4277 6.4383 13.1177 6.23391 13.6773C5.97449 14.398 5.50282 14.8197 5.58929 15.6553C6.61124 15.9543 6.17102 14.1757 7.03575 14.0837C7.31089 14.743 7.13008 15.9773 7.05147 16.698C6.94141 17.6947 6.74488 17.94 7.35019 18.791C7.82972 19.4657 7.99481 19.918 8.92243 20.0253C9.77929 20.125 10.133 20.5007 10.4868 21.3057C11.1471 21.4437 11.5481 21.551 11.6267 22.264C11.9097 22.4173 12.4521 22.9233 12.7508 23C13.191 23.115 13.9221 22.5017 14.3309 22.9693C15.0227 23.7513 13.4583 25.7907 13.1832 26.496C12.7744 27.531 12.7115 29.0413 13.7177 29.785C14.2287 30.1683 14.779 30.3447 14.9441 31.0347C15.1013 31.671 14.9755 32.2 15.2664 32.8057C15.7145 33.7487 16.7522 34.0553 17.4911 34.776C18.458 35.719 18.3873 36.9457 18.3873 38.2797C18.3873 39.6137 18.9297 40.7407 19.1184 42.021C19.3149 43.3397 19.7158 44.5663 19.9988 45.8467C20.2111 46.805 21.0601 48.2617 22.2943 48.0623C22.3807 47.61 21.8934 47.2497 21.8383 46.7973C21.7833 46.391 21.9012 45.9617 21.8147 45.5247C21.6497 44.6583 21.6575 44.1447 22.2471 43.3933C22.4594 43.125 22.7424 42.9027 22.9546 42.642C23.3713 42.1207 23.0489 42.274 23.0332 41.7067C23.0096 41.0013 23.2298 41.3463 23.67 41.124C23.898 41.009 24.1495 40.664 24.3225 40.4877C24.7077 40.0967 25.2972 39.6367 25.5881 39.1767C25.9183 38.6553 25.879 37.9347 26.217 37.4057C26.6101 36.7923 27.1603 36.7923 27.7106 36.3937C28.4181 35.8723 28.1273 35.328 28.253 34.6227C28.4653 33.4343 29.0234 32.1233 29.786 31.1803C30.7529 29.992 31.1695 28.98 29.9904 27.83C29.4086 27.2627 29.1099 27.416 28.3317 27.2167C27.7421 27.0633 27.2154 26.6493 26.6179 26.5727C26.2563 26.5267 26.0441 26.657 25.7217 26.5727C25.4152 26.496 25.4545 26.312 25.1322 26.3197C24.6526 26.3197 23.9844 27.301 23.5756 26.68C23.3477 26.335 24.0316 25.369 24.008 24.909C23.9687 24.334 23.7486 23.4063 23.1747 23.092C22.9546 22.977 22.4751 22.954 22.2078 22.8543C21.8934 22.7393 21.5868 22.5477 21.3038 22.3713C20.9422 22.1413 20.2346 21.7427 20.0696 21.3363C19.6215 21.321 19.3149 21.0757 18.8589 21.0833C18.4502 21.0833 18.175 21.275 17.7348 21.2213C17.3496 21.1753 16.9251 20.8763 16.5085 20.9377C16.2255 20.976 15.8167 21.3287 15.573 21.459C14.9362 21.8117 14.2523 22.0647 13.5527 22.195C12.46 22.3943 12.2634 21.988 12.3263 20.999L12.1612 20.677C12.57 19.573 11.8389 19.4963 11.0292 19.228C10.9192 18.446 11.9097 17.8863 11.493 17.0277C10.6597 16.9893 9.74785 19.2817 9.04034 18.285C8.57654 17.6257 9.28404 15.7933 9.69282 15.2413C10.1095 14.6817 11.6109 13.6697 12.3185 13.5853C12.8687 13.5163 13.3561 13.754 13.5684 14.2293C13.7964 14.743 13.4976 15.226 13.5684 15.8087C14.2759 15.6477 14.0951 14.7737 14.0636 14.306C14.0086 13.524 14.4331 13.5777 14.8419 13.018C15.2114 12.5043 15.2743 11.914 15.7381 11.4157C16.0997 11.0247 16.5242 10.6183 16.9251 10.2657C17.381 9.85933 17.892 9.89767 18.3558 9.59867C19.0633 9.13867 18.1279 8.29533 19.1734 8.35667C19.5429 8.37967 19.3621 8.602 19.8495 8.49467C20.0617 8.44867 20.4469 8.257 20.6592 8.17267C21.6575 7.78167 20.95 7.67433 20.4941 7.16067C19.9123 6.509 20.7378 6.624 21.3352 6.52433C21.7754 6.45533 21.6811 6.30967 22.0663 6.56267C22.4043 6.785 22.2078 7.084 22.7031 7.061C23.6464 7.03033 22.9939 6.11033 22.7817 5.80367C22.4201 5.28233 22.3336 4.91433 21.571 4.899C21.6418 4.66133 21.6497 4.35467 21.5475 4.12467C20.9107 4.209 20.8007 3.75667 20.3133 3.57267C19.4957 3.27367 19.6293 3.92533 19.2992 4.37C18.9533 4.83 18.3008 4.74567 18.0492 5.30533C17.7898 5.888 18.0335 6.33267 17.0823 6.17167C17.216 5.819 17.1688 5.37433 17.1452 4.99867C16.8701 4.96033 16.6106 4.899 16.3512 4.81467C16.3512 3.87933 17.4125 3.80267 18.1357 3.71067C18.9454 3.611 19.2048 2.81367 19.9281 2.67567C20.6041 2.553 21.0837 3.611 21.9091 2.99767C22.3807 2.645 22.1606 2.438 21.9877 2.10067C21.9405 2.00867 21.7047 1.80933 21.6418 1.725C21.6418 1.71733 21.6339 1.70967 21.6261 1.69433C22.2707 1.57167 22.9232 1.47967 23.5756 1.403C23.7014 1.75567 23.9687 2.17733 24.1102 2.415C24.2203 2.59133 24.4168 2.714 24.5033 2.90567C24.5976 3.128 24.3696 3.404 24.6605 3.54967C25.1007 3.77967 26.3978 2.277 26.7044 2.03167C27.0975 1.725 27.3411 1.54867 27.2468 1.24967C29.3222 1.311 31.3582 1.61767 33.3078 2.14667C33.465 2.33833 33.6222 2.53 33.7794 2.75233C34.1253 3.22 34.3376 3.64167 34.9586 3.84867C35.3202 3.97133 36.468 3.94833 35.9884 4.74567C35.5482 5.48167 35.0608 4.51567 34.8407 4.28567C34.5341 3.96367 33.6222 3.60333 33.6537 4.347C33.693 5.44333 36.24 5.267 35.6897 6.47833C35.9963 6.65467 36.5937 6.946 36.4994 7.37533C36.3815 7.912 35.6661 7.567 35.6818 8.24933C35.7054 9.21533 36.7824 10.0127 37.7886 9.66767C38.8578 9.29967 38.0559 7.843 39.2823 7.69733C39.7697 7.636 40.0527 7.774 40.485 8.11133C40.8388 8.38733 41.0667 9.00067 41.5541 8.95467C41.6013 8.66333 41.3733 8.44867 41.3419 8.18033C41.7192 8.27233 42.4739 8.73233 42.694 9.05433C43.0242 9.53733 42.9849 10.235 43.7867 9.614C43.6688 9.51433 43.6059 9.30733 43.543 9.23067C44.565 9.23067 45.2803 9.64467 45.7206 10.511C46.7032 12.443 44.2898 10.9097 44.1719 11.914C43.5823 11.73 43.315 11.2623 42.7962 10.9863C42.5525 10.856 42.0966 10.925 41.9158 10.7947C41.6563 10.6107 41.7192 10.2733 41.4912 10.097C40.6029 9.384 38.5669 10.534 37.7493 10.994C37.5292 11.1167 37.2934 11.132 37.1362 11.3697C36.8767 11.7683 37.2384 11.8757 37.1597 12.2513C37.0418 12.788 36.3265 13.0333 36.1142 13.4627C35.5954 14.49 36.6488 15.9697 36.5073 17.112C36.4287 17.7483 35.729 18.4383 35.9963 18.9673C36.1142 19.1973 36.5151 19.389 36.6724 19.6573C36.8139 19.9027 36.8767 20.2247 37.0575 20.4777C37.655 21.298 38.5197 22.218 39.2272 22.9847C39.6282 23.4217 40.1706 23.5443 40.7759 23.4217C41.2711 23.322 42.0258 23.161 42.4896 22.9463C43.1028 22.655 43.1893 22.2563 43.8339 22.5247C44.3527 22.747 44.8008 23.3833 45.4061 22.8543C45.9014 23.3297 45.3511 24.15 45.241 24.679C45.0995 25.3537 45.3747 25.944 45.7992 26.5113C46.3101 27.2013 46.4281 27.324 46.3259 28.244C46.2473 28.9647 46.0586 29.6163 45.9014 30.3293C45.752 31.0117 45.3039 31.5253 45.3275 32.246C45.3511 32.913 45.6419 33.442 45.5555 34.155C45.4769 34.7837 45.4376 35.535 45.2725 36.1483C45.0995 36.777 44.6436 37.3367 44.4549 37.9807C44.2741 38.594 44.3213 39.3913 44.7615 39.8897C45.2174 40.411 45.6734 40.112 46.208 39.7133C47.2692 38.9313 47.7487 37.5973 48.4562 36.5393C49.1716 35.4583 49.9027 34.477 50.3744 33.35C50.4766 33.1123 50.6023 32.8747 50.7203 32.6447C49.5568 36.6083 47.3793 40.2423 44.3134 43.24H44.337Z" fill="#404256"/>
</g>
<defs>
<clipPath id="clip0_415_4">
<rect width="53" height="69" fill="white"/>
</clipPath>
</defs>
</svg>
